<svg width="228" height="72" viewBox="0 0 228 72" fill="none" xmlns="http://www.w3.org/2000/svg">
<rect width="228" height="72" fill="white"/>
<path d="M53.2878 24.7534H67.0427C67.0335 24.9342 66.9695 25.1079 66.8591 25.2521C66.3936 26.0437 65.9748 26.8672 65.5167 27.6588C64.8739 28.7954 64.2642 29.9519 63.6068 31.0839C63.1899 31.9028 62.7198 32.6872 62.2753 33.4879H54.2593C54.1197 33.4879 53.9838 33.4952 53.8415 33.5025C53.7057 33.7981 53.5502 34.0845 53.3759 34.3596C53.1721 34.6872 53.0086 35.0366 52.8057 35.3606C52.5927 35.801 52.2979 36.1959 52.084 36.6345C51.6414 37.3788 51.2282 38.134 50.7985 38.8866C50.3467 39.6558 49.905 40.4356 49.4735 41.226C49.2909 41.5062 49.1226 41.7953 48.9694 42.0923C48.0622 43.6555 47.1871 45.2297 46.2808 46.7875C46.204 46.955 46.1029 47.1105 45.9806 47.2489C44.4324 47.2389 42.8843 47.2489 41.3362 47.2489C41.1454 47.2527 40.9558 47.2793 40.7715 47.3281C40.8346 46.9206 40.9993 46.5353 41.2508 46.207C41.484 45.7284 41.7944 45.2843 42.0285 44.8039C43.8843 41.5136 45.7198 38.2123 47.5663 34.9201C47.985 34.2049 48.345 33.4752 48.7664 32.7736C49.2926 31.8509 49.7829 30.9073 50.3274 29.9947C50.5019 29.6125 50.737 29.2667 50.9289 28.8909C51.6111 27.688 52.2805 26.4777 52.96 25.2748C53.0407 25.0868 53.1487 24.9115 53.2804 24.7543L53.2878 24.7534Z" fill="#42526E"/>
<path d="M69.2242 29.5976C70.1424 28.0116 71.0248 26.4083 71.9541 24.8286H76.9226C76.9949 24.8323 77.0666 24.8436 77.1365 24.8623C76.9713 25.1107 76.8326 25.3737 76.6875 25.6321C75.4895 27.7632 74.2959 29.8954 73.1065 32.0289C72.606 32.8979 72.1405 33.786 71.6373 34.6496L71.5868 34.6669L71.5776 34.7751C69.2417 38.9281 66.9137 43.0835 64.5936 47.2413C60.0325 47.2461 55.472 47.2461 50.9121 47.2413C51.172 46.7035 51.4787 46.1903 51.7679 45.668C53.0672 43.3022 54.3995 40.9545 55.6804 38.5878C58.4829 38.5829 61.2853 38.5829 64.0877 38.5878C65.8185 35.6004 67.5126 32.5895 69.2297 29.5967L69.2242 29.5976Z" fill="#42526E"/>
<path d="M120.504 24.7666V47.515H124.482V31.5183L131.736 42.0536L138.933 31.2681V47.515H143.028V24.7666H138.62L131.761 35.2673L124.831 24.7666H120.504Z" fill="#42526E"/>
<path d="M101.897 30.6338H104.497V47.7069H101.897V30.6338Z" fill="#42526E"/>
<path d="M101.674 24.3086H104.721V27.1731H101.674V24.3086Z" fill="#42526E"/>
<path d="M109.458 25.7417H112.174V30.6372H117.529V33.0212H112.174V43.1606C112.169 43.5514 112.261 43.9374 112.441 44.2853C112.9 45.1507 114.149 46.1771 117.528 44.9778V47.188C117.528 47.188 114.444 48.9169 111.652 47.3427C111.161 47.0781 110.731 46.7138 110.392 46.2737C110.052 45.8336 109.81 45.3276 109.681 44.7885C109.53 44.2606 109.455 43.714 109.46 43.1652V32.9802L107.17 33.0185V30.6372H109.478L109.458 25.7417Z" fill="#42526E"/>
<path d="M147.219 24.7666V47.6688H164.482V43.9772H151.434V37.897H162.938V34.2673H151.41V28.481H164.351V24.7666H147.219Z" fill="#42526E"/>
<path d="M166.105 24.7666H171.023L176.669 32.8068L182.27 24.7666H187.188L179.157 35.9352L187.69 47.6488H182.51L176.689 39.0954L170.586 47.6697H165.668L174.078 36.038L166.105 24.7666Z" fill="#42526E"/>
<path d="M93.9371 35.7864C95.0342 35.3445 95.9664 34.5768 96.6056 33.5888C97.2448 32.6009 97.5598 31.441 97.5071 30.2685C97.4237 29.0407 96.9387 27.8732 96.1254 26.9431C95.3121 26.0131 94.215 25.3712 93.0005 25.1147C92.2564 24.9172 91.489 24.8196 90.7187 24.8244H79.9893L80.0186 47.5728H91.5717C91.5717 47.5728 98.3326 47.429 98.8091 41.4589C98.8091 41.4589 99.293 37.2869 93.9425 35.7864H93.9371ZM82.7632 27.1729H89.6122C94.9857 27.1547 94.8305 30.9037 94.8305 30.9037C94.9104 35.1804 89.9795 35.0948 89.9795 35.0948H82.7623L82.7632 27.1729ZM91.1447 45.1688H82.7632V37.2523H90.7765C96.15 37.2323 95.9948 40.983 95.9948 40.983C96.0756 45.2552 91.1447 45.1688 91.1447 45.1688Z" fill="#42526E"/>
</svg>
