<svg width="228" height="72" fill="none" xmlns="http://www.w3.org/2000/svg"><path fill="#fff" d="M0 0h228v72H0z"/><path d="M47 34.0029l7.1263-3.4824L47 27.0015v7.0014z" stroke="#42526E" stroke-width="1.4795"/><path d="M47 34.0028v7.0014l14.2526-7.0014-7.1263-3.4823L47 34.0028z" stroke="#42526E" stroke-width="1.4795"/><path d="M47 41.0041h21.3789v-3.5182l-7.1263-3.5191L47 41.0041zM47.0005 20v7.0014l7.1263 3.4823 7.1263-3.4823L47.0005 20z" stroke="#42526E" stroke-width="1.4795"/><path d="M47.0005 20l14.2526 7.0014 7.1263-3.4823V20H47.0005z" stroke="#42526E" stroke-width="1.4795"/><path d="M61.2533 27.0015l-7.1263 3.4823 7.1263 3.4824 7.1263 3.519V23.4824l-7.1263 3.5191z" stroke="#42526E" stroke-width="1.4795"/><path d="M170.585 32.6971c-.605 0-1.209.0363-1.81.1086-1.108.1813-1.698.7252-1.698 1.7052-.01.1789.02.3579.089.5239.068.1661.173.3152.308.4366.134.1214.294.2121.468.2656.174.0535.358.0685.538.0439a2.13 2.13 0 00.864-.1589c.273-.1124.519-.2803.721-.4929.203-.2125.357-.4647.453-.7401.096-.2753.131-.5675.104-.8573l-.037-.8346zm-2.917 5.0062a3.125 3.125 0 01-1.287-.1657 3.0886 3.0886 0 01-1.103-.6727 3.0118 3.0118 0 01-.722-1.0599 2.9775 2.9775 0 01-.213-1.2581c0-1.7412 1.145-2.7931 3.028-3.2284a13.716 13.716 0 013.212-.254c0-1.4871-.627-1.9951-2.215-1.9951a7.3152 7.3152 0 00-2.917.6893v-2.1406a8.4004 8.4004 0 013.286-.6166c3.325 0 4.505 1.4872 4.505 4.2468v4.0948h1.295v2.0679h-3.693l-.184-1.0519h-.037c-.349.437-.799.7864-1.313 1.0198a3.6381 3.6381 0 01-1.641.3228l-.001.0016zm-33.341-5.0078c-.605 0-1.209.0362-1.81.1086-1.108.1813-1.698.7252-1.698 1.7052-.01.1789.02.3578.088.5239.069.1661.174.3151.308.4366.134.1214.294.2121.468.2656.174.0535.358.0685.539.0438.296.0076.59-.0465.864-.1588.273-.1124.519-.2804.721-.4929.203-.2125.357-.4648.453-.7401a2.03 2.03 0 00.103-.8573 6.2647 6.2647 0 01-.037-.833l.001-.0016zm-2.917 5.0062a3.125 3.125 0 01-1.287-.1657 3.09 3.09 0 01-1.103-.6727 3.0127 3.0127 0 01-.722-1.0599 2.9624 2.9624 0 01-.213-1.2582c0-1.7411 1.145-2.793 3.027-3.2283a13.7234 13.7234 0 013.213-.254c0-1.4872-.628-1.9951-2.179-1.9951a7.3104 7.3104 0 00-2.916.6892v-2.1389a8.3955 8.3955 0 013.285-.6166c3.325 0 4.542 1.4872 4.542 4.2468v4.0948h1.293v2.0679h-3.692l-.222-1.0519h-.037a3.6433 3.6433 0 01-1.334 1.0205 3.7135 3.7135 0 01-1.658.3221h.003zm-38.1063-5.0046c-.6049 0-1.2092.0363-1.8096.1086-1.1081.1813-1.6983.7252-1.6983 1.7052a1.195 1.195 0 00.0886.5239c.0686.1661.1737.3152.3078.4366.1342.1214.294.2121.4681.2656a1.257 1.257 0 00.5387.0439 2.129 2.129 0 00.8637-.1589 2.0976 2.0976 0 00.7215-.4929 2.0525 2.0525 0 00.4524-.7401 2.0255 2.0255 0 00.1037-.8573l-.0366-.8346zm-2.8803 5.0062a3.1254 3.1254 0 01-1.2871-.1657 3.0839 3.0839 0 01-1.1029-.6727 3.0176 3.0176 0 01-.7222-1.0599 2.9742 2.9742 0 01-.2128-1.2581c0-1.7412 1.1447-2.7931 3.0275-3.2284a13.7233 13.7233 0 013.2127-.254c0-1.4871-.6276-1.9951-2.1787-1.9951a7.3127 7.3127 0 00-2.9168.6893v-2.1406a8.3982 8.3982 0 013.2859-.6166c3.325 0 4.542 1.4872 4.542 4.2468v4.0948h1.33v2.0679h-3.6916l-.2195-1.0503h-.0366a3.8683 3.8683 0 01-1.3598 1.0062 3.9325 3.9325 0 01-1.6676.3364h-.0025zm57.0506-5.4056c0-1.9224-.96-3.1924-2.437-3.1924-1.478 0-2.438 1.27-2.438 3.1565 0 1.8865.923 3.1924 2.364 3.1924 1.477.0359 2.511-1.2699 2.511-3.1565zm2.732 0c0 3.1924-1.846 5.3689-4.542 5.3689a3.6152 3.6152 0 01-1.672-.2703 3.5512 3.5512 0 01-1.355-.9996v4.3169l-2.696 1.0887V29.2507h-1.367v-2.0678h3.841l.184 1.3426h.037a3.272 3.272 0 011.314-1.1858 3.3447 3.3447 0 011.751-.3382c2.769 0 4.504 2.1038 4.504 5.2962h.001zm-39.326-5.2962a4.1769 4.1769 0 00-1.865.3695 4.105 4.105 0 00-1.495 1.1545h-.037l-.184-1.3426h-4.025v2.0678h1.513v8.1987h2.733v-4.7523c0-2.5391 1.366-3.4823 2.548-3.4823 1.108 0 1.624.6892 1.624 2.2867v5.9495h2.696v-6.5661c-.037-2.5391-1.256-3.8817-3.508-3.8817v-.0017zm12.332 8.2363c-2.769 0-4.394-1.8498-4.394-4.7882 0-2.8658 1.624-4.825 4.172-4.825.61-.0013 1.218.072 1.81.2181v2.9025l2.4-.9801V24.353a8.219 8.219 0 00-4.136-1.0151c-4.246 0-7.163 2.5758-7.163 7.1868 0 4.3529 2.585 7.1868 7.163 7.1868a9.3083 9.3083 0 004.172-1.0159l-.591-2.2492a7.1275 7.1275 0 01-3.434.7979l.001-.0065zm55.496.1519V22.6846l-2.732 1.0886v13.6762h4.025v-2.0679l-1.293.0082zm-95.3369-2.076c0-1.3426-.9975-2.0319-2.66-2.0319h-2.5835v4.0989h2.6218c1.8827-.0359 2.66-.8706 2.6217-2.0678v.0008zm-5.2801-4.1365h2.182c1.5512 0 2.3275-.7252 2.3275-1.7412 0-1.1972-.7381-1.8138-2.1413-1.8138H78.091v3.555zm8.1604 4.2467c0 2.6485-2.1413 4.0271-5.3541 4.0271h-5.576V25.6246H73.623v-2.0694h6.8313a6.487 6.487 0 013.5078.6892 3.1214 3.1214 0 011.117 1.1829 3.055 3.055 0 01.3602 1.5742c.006.6961-.2335 1.3728-.6778 1.915-.4443.5422-1.066.9166-1.7595 1.0594v.0359c2.0308.3267 3.2494 1.6334 3.2494 3.4097v.0024zm64.7276-4.174h1.477v8.1995h2.696V27.1829h-4.172l-.001 2.067zm1.477-3.845h2.696v-2.5023h-2.732l.036 2.5032v-.0009zm-54.8697 3.8458h1.4772v8.1987h2.7325V27.1829h-4.2097v2.0678zm1.4772-3.8449h2.7325v-2.5032h-2.7325v2.5032zm61.7735 1.7779h2.769v2.067h-2.769v4.5342c0 1.1246.258 1.8139 1.367 1.8139.41-.0249.818-.0856 1.218-.1814v1.9952c-.689.1675-1.395.2647-2.105.2899-2.104 0-3.175-1.0159-3.175-3.2283v-5.2268h-1.477v-2.0645h1.477v-1.7412l2.696-1.0887v2.8299l-.001.0008zM79.5656 45.1033l-1.6983 5.297-1.6982-5.2962h-1.4406l2.3275 6.7115h1.5129l2.3275-6.7474c-.0017.0351-1.3308.0351-1.3308.0351zm2.4372 0v6.7115h4.5045v-1.0886h-3.1388v-1.9225h2.8429v-1.0519h-2.8429v-1.6333h3.0274v-1.0511h-4.3931v.0359zm10.3391 0v4.6437l-2.9169-4.6437h-1.4405v6.7474h1.2909v-4.9001l3.0648 4.8609h1.2926v-6.7082h-1.2909zm2.4372 0v1.0519h1.9568v5.6955h1.3665V46.156h1.9566v-1.0527h-5.2799zM105.23 45.104h1.367v4.063c.071.7263-.141 1.4521-.591 2.0319a2.6144 2.6144 0 01-.982.6225c-.371.132-.767.1797-1.16.1395a2.7068 2.7068 0 01-1.158-.1445 2.6656 2.6656 0 01-.983-.6175c-.463-.575-.687-1.301-.628-2.0319v-4.063h1.367v4.1357c-.027.1916-.015.3866.036.5736.05.1869.139.362.259.515.291.2792.682.4355 1.089.4355.407 0 .798-.1563 1.09-.4355.12-.153.209-.3281.259-.515.051-.187.063-.382.036-.5736V45.104h-.001zm6.204 1.2699a1.2562 1.2562 0 00-.886-.218h-.961v2.1038h.961c.311.0187.62-.0575.886-.2181.113-.0847.207-.1908.278-.3119.07-.1211.116-.2549.133-.3935a1.0313 1.0313 0 00-.033-.4134 1.0418 1.0418 0 00-.194-.3684.4395.4395 0 00-.184-.1813v.0008zm.627 5.4767l-1.587-2.6134h-.85v2.6134h-1.367V45.104h2.474c.611-.042 1.22.1106 1.736.4353.208.163.381.365.509.5943.127.2294.207.4814.235.7414.027.26.002.5228-.075.773a1.9501 1.9501 0 01-.374.6843 2.1577 2.1577 0 01-.96.6534l1.81 2.8298-1.552.0359.001-.0008zM114.793 45.1033v6.7115h4.505v-1.0886h-3.139v-1.9225h2.843v-1.0519h-2.843v-1.6333h3.027v-1.0511h-4.393v.0359zM122.694 51.9239c-.951-.0004-1.864-.3635-2.548-1.0127l.665-.9433c.501.4762 1.153.7706 1.847.8347.812 0 1.218-.3267 1.218-.8347s-.517-.6893-.775-.7979c-.259-.1086-1.145-.3993-1.33-.4712a1.8629 1.8629 0 01-.958-.655 1.8067 1.8067 0 01-.372-1.0862c0-.8706.627-1.9224 2.474-1.9224.845.0073 1.659.3167 2.289.8705l-.591.9066c-.487-.4366-1.114-.693-1.772-.7253-.702 0-1.108.254-1.108.762s.517.6893.738.7979c.221.1086 1.108.3994 1.292.4712a1.832 1.832 0 011.02.6465c.255.3233.39.7224.383 1.1314 0 .9801-.701 2.1038-2.584 2.1038" fill="#42526E"/></svg>