<svg width="188" height="60" fill="none" xmlns="http://www.w3.org/2000/svg"><path fill="#fff" d="M0 0h187.5v59.2105H0z"/><path fill-rule="evenodd" clip-rule="evenodd" d="M14.0111 33.6815a7.7967 7.7967 0 001.2917 1.9553 7.6202 7.6202 0 01-3.6542.8758c-3.8909 0-6.7145-2.5197-6.7145-6.5414 0-4.0504 2.9679-6.5708 6.7145-6.5708a7.0307 7.0307 0 013.4446.838 7.9125 7.9125 0 00-1.2079 2.0176 5.3262 5.3262 0 00-1.9745-.366 3.9339 3.9339 0 00-1.6181.2456 3.8784 3.8784 0 00-1.3702.881 3.7976 3.7976 0 00-.8771 1.3588 3.7454 3.7454 0 00-.2273 1.5937 3.821 3.821 0 00.2613 1.6082c.2019.5119.5119.9758.9096 1.3613a3.9584 3.9584 0 001.3978.8747 4.0132 4.0132 0 001.6398.2341 5.47 5.47 0 001.9895-.3659h-.005zm7.8251-10.2832c3.8326 0 6.5987 2.6621 6.5987 6.5708a6.3738 6.3738 0 01-.4815 2.4971 6.4618 6.4618 0 01-1.4226 2.1223 6.593 6.593 0 01-2.1445 1.4203 6.685 6.685 0 01-2.5356.4991 6.6848 6.6848 0 01-2.5355-.4991 6.593 6.593 0 01-2.1445-1.4203 6.4636 6.4636 0 01-1.4227-2.1223 6.3755 6.3755 0 01-.4814-2.4971c0-3.9108 2.7668-6.5708 6.5696-6.5708zm0 2.4072c-2.1316 0-3.6891 1.6146-3.6891 4.1636 0 2.521 1.5568 4.1342 3.6891 4.1342 2.1898 0 3.7175-1.6132 3.7175-4.1342 0-2.549-1.5263-4.1636-3.7175-4.1636zm8.4148 10.4193V23.6811h2.852v12.5437h-2.852zm-.3759-16.3985c0-.4659.1883-.9126.5234-1.242.3351-.3294.7897-.5144 1.2636-.5144.4739 0 .9285.185 1.2636.5144.3351.3294.5234.7761.5234 1.242 0 .4658-.1883.9125-.5234 1.2419-.3351.3294-.7897.5144-1.2636.5144-.4739 0-.9285-.185-1.2636-.5144-.3351-.3294-.5234-.7761-.5234-1.2419zm5.7162 4.6454a17.3704 17.3704 0 015.8498-1.0762c3.2564 0 5.329 1.2187 5.329 4.7586v8.0707h-2.8244v-7.8137c0-1.8157-1.1525-2.4645-2.7384-2.4645a10.043 10.043 0 00-2.7661.3687v9.9095h-2.8463V24.4717h-.0036zm13.5711-7.5059h2.8514v7.0533a7.1457 7.1457 0 012.9132-.6229c3.6891 0 6.4551 2.322 6.4551 6.3445 0 4.0504-2.7376 6.7684-7.4605 6.7684a14.4047 14.4047 0 01-4.7542-.8206V16.9686l-.005-.0028zm2.8514 16.8805a7.0766 7.0766 0 001.9895.2542c2.6225 0 4.4962-1.4156 4.4962-4.3046a3.6359 3.6359 0 00-.2425-1.5093 3.6885 3.6885 0 00-.8433-1.2836 3.7658 3.7658 0 00-1.2998-.8383 3.819 3.819 0 00-1.5337-.2496 5.4054 5.4054 0 00-2.565.5951v7.3326l-.0014.0035zm17.6055-6.033c0-1.3604-1.0374-1.982-2.4492-1.982-1.3007.0055-2.5756.3574-3.6891 1.0182v-2.4358a8.6308 8.6308 0 014.1495-1.0189c2.7946 0 4.7826 1.1327 4.7826 4.276v8.2985a19.338 19.338 0 01-4.379.5105c-3.3139 0-5.7347-.9917-5.7347-3.8235 0-2.5497 2.2183-3.7948 5.9067-3.7948h1.4125V27.814l.0007-.0007zm0 2.9169h-1.2079c-1.9895 0-3.2862.5657-3.2862 1.8409 0 1.3031 1.2079 1.8157 2.9402 1.8157a10.5073 10.5073 0 001.556-.1397v-3.5119l-.0021-.005zm4.8693 2.0951c1.1116.8646 2.4736 1.3602 3.8901 1.4155 1.2683 0 2.1039-.4246 2.1039-1.4155 0-1.0203-.7489-1.3883-2.3916-1.8157-2.651-.5943-3.7751-1.6425-3.7751-3.8227 0-2.549 1.9596-3.7949 4.5524-3.7949 1.289-.0362 2.5608.2982 3.6592.9623v2.5825c-1.0156-.7999-2.2714-1.2479-3.5725-1.2745-1.2392 0-1.9014.5951-1.9014 1.4156 0 .8206.5464 1.2473 2.0165 1.6425 2.9131.6236 4.1786 1.7005 4.1786 3.9659 0 2.6342-2.0456 3.8235-4.8117 3.8235-1.3865.0261-2.7532-.3266-3.9477-1.0189v-2.6621l-.0007-.0035zm12.6637-2.2347v.0565c.1741 2.2347 2.1316 3.4548 4.1211 3.4548 1.5247.048 3.0259-.3777 4.2902-1.2166v2.4652c-1.3512.809-2.9135 1.2122-4.4948 1.16-3.979 0-6.6854-2.4917-6.6854-6.4569 0-3.9932 2.6503-6.6553 6.1667-6.6553 3.7168 0 5.4711 2.3506 5.4711 5.7774v1.4163l-8.8689-.0014zm6.1959-1.8157c-.0576-1.9554-1.0367-3.0309-2.882-3.0309-1.642 0-2.852 1.1328-3.2272 3.0309h6.1092zM106.667 16.4473c.123 0 .241.048.328.1335a.4524.4524 0 01.136.3225V42.307a.4554.4554 0 01-.035.1746.4699.4699 0 01-.101.1479.4668.4668 0 01-.15.0989.476.476 0 01-.178.0347.476.476 0 01-.178-.0347.4668.4668 0 01-.15-.0989.4699.4699 0 01-.101-.1479.4554.4554 0 01-.035-.1746V16.9033c0-.1209.049-.237.136-.3225a.468.468 0 01.328-.1335zM123.131 36.2489h-1.589l-4.918-12.536h1.439l4.295 11.228 4.294-11.228h1.397l-4.918 12.536zm12.73-4.5393h-7.086v.0419c-.027.4641.043.9288.206 1.3651.164.4363.416.835.743 1.1714.326.3364.719.6033 1.155.7842.436.1809.904.2719 1.377.2675 1.157.0367 2.29-.3299 3.198-1.035v1.2668c-.947.6133-2.064.9231-3.198.8869-2.705 0-4.767-1.8157-4.767-4.8123 0-2.7648 1.932-4.8116 4.444-4.8116 2.363 0 3.93 1.3925 3.93 4.0106v.8653l-.002-.0008zm-7.001-1.0551h5.714c-.085-1.9212-1.137-2.702-2.706-2.702-1.46 0-2.641.9708-3.006 2.702h-.002zm8.435 5.5923v-8.7139a12.1408 12.1408 0 013.93-.6984c2.362 0 3.801.9079 3.801 3.2082v6.2041h-1.286v-5.9513c0-1.8785-1.35-2.2794-2.62-2.2794-.855.0076-1.707.1211-2.533.338v7.8913l-1.292.0014zm8.522-8.1253v-1.0761h1.438v-2.2347h1.289v2.2347h2.641v1.0761h-2.641v5.6141c0 1.1816.472 1.6467 1.35 1.6467a3.7944 3.7944 0 001.739-.5064v1.1174a4.4395 4.4395 0 01-2.018.4644c-1.35 0-2.363-.6983-2.363-2.5957v-5.7411l-1.435.0006zm14.34-1.0761v9.096a18.4735 18.4735 0 01-3.264.317c-2.706 0-4.252-.9079-4.252-3.2082v-6.2055h1.289v6.1454c0 1.7298 1.396 2.1733 2.877 2.1733a17.528 17.528 0 002.061-.1264v-8.1895l1.289-.0021zm3.475 1.5196v7.6818h-1.287v-8.355c1.042-.6468 2.249-.9908 3.481-.9924.528.0022 1.055.066 1.568.19v1.2451a5.4918 5.4918 0 00-1.654-.2318 4.3015 4.3015 0 00-2.104.4644l-.004-.0021zm12.107 3.1426h-7.086v.0419a3.344 3.344 0 00.206 1.365c.163.4363.416.835.742 1.1714.327.3364.72.6033 1.156.7842.435.1809.904.2719 1.377.2675 1.157.0364 2.289-.3302 3.198-1.035v1.2668c-.947.6133-2.064.9231-3.198.8869-2.706 0-4.766-1.8157-4.766-4.8123 0-2.7647 1.933-4.8116 4.444-4.8116 2.363 0 3.93 1.3925 3.93 4.0106v.8653l-.003-.0007zm-7-1.0552h5.712c-.086-1.9212-1.137-2.7019-2.705-2.7019-1.46.0041-2.64.9755-3.006 2.706l-.001-.0041zm7.985 5.0651v-1.4351c.701.6891 1.649 1.0828 2.641 1.0978 1.18 0 1.932-.4435 1.932-1.4777 0-1.0978-.816-1.3967-2.297-1.8786-1.653-.5489-2.362-1.2242-2.362-2.7019 0-1.6251 1.246-2.4903 2.942-2.4903.905-.033 1.799.211 2.558.6984v1.3722c-.697-.6333-1.609-.9873-2.558-.9923-1.03 0-1.696.5489-1.696 1.4141 0 .8436.515 1.2871 1.953 1.7305 1.634.4854 2.728 1.0971 2.728 2.7648 0 1.8157-1.439 2.6383-3.198 2.6383a4.5942 4.5942 0 01-2.642-.7381l-.001-.0021z" fill="#42526E"/><path fill-rule="evenodd" clip-rule="evenodd" d="M123.131 36.2489h-1.589l-4.918-12.536h1.439l4.295 11.228 4.294-11.228h1.397l-4.918 12.536zm12.73-4.5393h-7.086v.0419c-.027.4641.043.9288.206 1.3651.164.4363.416.835.743 1.1714.326.3364.719.6033 1.155.7842.436.1809.904.2719 1.377.2675 1.157.0367 2.29-.3299 3.198-1.035v1.2668c-.947.6133-2.064.9231-3.198.8869-2.705 0-4.767-1.8157-4.767-4.8123 0-2.7648 1.932-4.8116 4.444-4.8116 2.363 0 3.93 1.3925 3.93 4.0106v.8653l-.002-.0008zm-7.001-1.0551h5.714c-.085-1.9212-1.137-2.702-2.706-2.702-1.46 0-2.641.9708-3.006 2.702h-.002zm8.435 5.5923v-8.7139a12.1408 12.1408 0 013.93-.6984c2.362 0 3.801.9079 3.801 3.2082v6.2041h-1.286v-5.9513c0-1.8785-1.35-2.2794-2.62-2.2794-.855.0076-1.707.1211-2.533.338v7.8913l-1.292.0014zm8.522-8.1253v-1.0761h1.438v-2.2347h1.289v2.2347h2.641v1.0761h-2.641v5.6141c0 1.1816.472 1.6467 1.35 1.6467a3.7944 3.7944 0 001.739-.5064v1.1174a4.4395 4.4395 0 01-2.018.4644c-1.35 0-2.363-.6983-2.363-2.5957v-5.7411l-1.435.0006zm14.34-1.0761v9.096a18.4735 18.4735 0 01-3.264.317c-2.706 0-4.252-.9079-4.252-3.2082v-6.2055h1.289v6.1454c0 1.7298 1.396 2.1733 2.877 2.1733a17.528 17.528 0 002.061-.1264v-8.1895l1.289-.0021zm3.475 1.5196v7.6818h-1.287v-8.355c1.042-.6468 2.249-.9908 3.481-.9924.528.0022 1.055.066 1.568.19v1.2451a5.4918 5.4918 0 00-1.654-.2318 4.3015 4.3015 0 00-2.104.4644l-.004-.0021zm12.107 3.1426h-7.086v.0419a3.344 3.344 0 00.206 1.365c.163.4363.416.835.742 1.1714.327.3364.72.6033 1.156.7842.435.1809.904.2719 1.377.2675 1.157.0364 2.289-.3302 3.198-1.035v1.2668c-.947.6133-2.064.9231-3.198.8869-2.706 0-4.766-1.8157-4.766-4.8123 0-2.7647 1.933-4.8116 4.444-4.8116 2.363 0 3.93 1.3925 3.93 4.0106v.8653l-.003-.0007zm-7-1.0552h5.712c-.086-1.9212-1.137-2.7019-2.705-2.7019-1.46.0041-2.64.9755-3.006 2.706l-.001-.0041zm7.985 5.0651v-1.4351c.701.6891 1.649 1.0828 2.641 1.0978 1.18 0 1.932-.4435 1.932-1.4777 0-1.0978-.816-1.3967-2.297-1.8786-1.653-.5489-2.362-1.2242-2.362-2.7019 0-1.6251 1.246-2.4903 2.942-2.4903.905-.033 1.799.211 2.558.6984v1.3722c-.697-.6333-1.609-.9873-2.558-.9923-1.03 0-1.696.5489-1.696 1.4141 0 .8436.515 1.2871 1.953 1.7305 1.634.4854 2.728 1.0971 2.728 2.7648 0 1.8157-1.439 2.6383-3.198 2.6383a4.5942 4.5942 0 01-2.642-.7381l-.001-.0021z" fill="#42526E"/></svg>