<svg width="228" height="72" fill="none" xmlns="http://www.w3.org/2000/svg"><path fill="#fff" d="M0 0h228v72H0z"/><path d="M197.945 21.1436H31.0576v29.7142H197.945V21.1436z" stroke="#42526E" stroke-width="1.4795"/><path d="M50.3818 29.2297h5.1677c1.0216 0 1.845.2893 2.4705.8678.6254.5734.9381 1.3812.9381 2.4236 0 .8965-.2788 1.6783-.8365 2.3454-.5577.6619-1.415.9929-2.5721.9929h-3.6119v4.855h-1.5558V29.2297zm7.0049 3.2992c0-.8443-.3127-1.4176-.9381-1.7199-.344-.1616-.8157-.2424-1.4151-.2424h-3.0959v3.9794h3.0959c.6984 0 1.2639-.1486 1.6965-.4457.4378-.297.6567-.8208.6567-1.5714zm6.6609 7.2786c.933 0 1.5715-.3518 1.9155-1.0555.3492-.7088.5238-1.4958.5238-2.361 0-.7818-.1251-1.4176-.3753-1.9076-.3961-.7713-1.0789-1.157-2.0483-1.157-.86 0-1.4854.3283-1.8763.985-.3909.6567-.5864 1.449-.5864 2.3767 0 .8912.1955 1.634.5864 2.2281.3909.5942 1.0111.8913 1.8606.8913zm.0548-7.7086c1.0789 0 1.991.3597 2.7363 1.0789.7453.7193 1.1179 1.7773 1.1179 3.1741 0 1.3499-.3283 2.4653-.985 3.3461-.6567.8808-1.6757 1.3213-3.0569 1.3213-1.1518 0-2.0665-.3883-2.7441-1.1649-.6775-.7818-1.0163-1.8294-1.0163-3.1429 0-1.4072.357-2.5278 1.0711-3.3617.714-.8339 1.673-1.2509 2.877-1.2509zm5.5742-2.8692h1.4072v11.4847h-1.4072V29.2297zm8.7561 3.1116h1.5558c-.198.5368-.6385 1.7616-1.3212 3.6744-.5108 1.4386-.9382 2.6113-1.2822 3.5181-.813 2.137-1.3864 3.44-1.7199 3.909-.3336.4691-.9069.7036-1.72.7036-.198 0-.3518-.0078-.4612-.0234-.1043-.0156-.2346-.0443-.3909-.086v-1.2822c.2449.0678.4221.1095.5316.1251.1094.0157.2058.0235.2892.0235.2606 0 .4509-.0443.5708-.1329a1.1178 1.1178 0 00.3127-.3127c.026-.0417.1198-.2554.2814-.6411.1616-.3857.2789-.6724.3518-.86l-3.0959-8.6154h1.5949l2.2437 6.8173 2.2594-6.8173zm6.0042-.2424c.9434 0 1.7096.2294 2.2985.688.5942.4587.9512 1.2483 1.0711 2.3689h-1.3682c-.0833-.516-.2736-.9434-.5707-1.2822-.297-.344-.7739-.516-1.4307-.516-.8964 0-1.5375.4378-1.9232 1.3135-.2502.5681-.3752 1.2691-.3752 2.103 0 .8391.1772 1.5453.5316 2.1187.3544.5733.9121.8599 1.673.8599.5838 0 1.045-.1772 1.3838-.5316.344-.3596.5811-.8495.7114-1.4698h1.3682c-.1564 1.1102-.5473 1.9233-1.1727 2.4393-.6254.5107-1.4255.7661-2.4001.7661-1.0945 0-1.9675-.3987-2.619-1.1961-.6515-.8027-.9773-1.8034-.9773-3.0021 0-1.4698.357-2.6139 1.0711-3.4321.714-.8183 1.6235-1.2275 2.7284-1.2275zm4.7768-2.9082h1.4073v4.2842c.3335-.4222.6332-.7192.899-.8912.4535-.2971 1.019-.4457 1.6965-.4457 1.2144 0 2.0379.4248 2.4705 1.2744.2346.4638.3518 1.1075.3518 1.931v5.371h-1.4463v-5.2772c0-.615-.0782-1.0658-.2345-1.3525-.2554-.4586-.7349-.688-1.4385-.688-.5838 0-1.1128.2007-1.5871.602-.4743.4013-.7114 1.1597-.7114 2.275v4.4407h-1.4073V29.1907zm9.9914 9.2955c0 .4066.1486.7271.4456.9616.2971.2346.6493.3519 1.0553.3519.495 0 .975-.1147 1.439-.344.781-.3805 1.172-1.0033 1.172-1.8685v-1.1336c-.172.1094-.393.2006-.664.2736-.271.073-.537.1251-.798.1563l-.852.1095c-.511.0678-.894.1746-1.149.3205-.4326.245-.6489.6359-.6489 1.1727zm3.4089-2.8457c.323-.0417.539-.1772.649-.4065.062-.1251.093-.305.093-.5395 0-.4795-.172-.8261-.516-1.0398-.338-.2189-.826-.3283-1.461-.3283-.735 0-1.257.198-1.5641.5941-.172.2189-.284.5447-.3362.9773h-1.3134c.0261-1.032.3596-1.7486 1.0007-2.15.6463-.4065 1.394-.6098 2.244-.6098.985 0 1.785.1877 2.4.5629.61.3753.915.959.915 1.7513v4.8236c0 .146.028.2633.086.3519.062.0886.19.1329.383.1329.062 0 .133-.0026.211-.0079.078-.0104.161-.0234.25-.039v1.0397c-.219.0626-.386.1017-.5.1173-.115.0157-.271.0235-.469.0235-.485 0-.837-.172-1.056-.516-.115-.1824-.195-.4404-.242-.774-.287.3753-.699.701-1.236.9772-.536.2763-1.128.4144-1.774.4144-.7768 0-1.4126-.2345-1.9078-.7036-.4899-.4743-.7349-1.0659-.7349-1.7747 0-.7766.2424-1.3786.7271-1.806.4847-.4273 1.1206-.6905 1.9076-.7896l2.244-.2814zm4.425-3.2601h1.43v8.334h-1.43v-8.334zm0-3.1507h1.43v1.5949h-1.43v-1.5949zm3.565 3.1116h1.337v1.1883c.396-.4899.815-.8417 1.258-1.0554.443-.2137.936-.3205 1.478-.3205 1.188 0 1.991.4143 2.408 1.243.229.4535.344 1.1024.344 1.9467v5.371h-1.431v-5.2772c0-.5108-.075-.9225-.227-1.2352-.25-.5212-.703-.7818-1.36-.7818-.333 0-.607.0339-.821.1016-.385.1147-.724.344-1.016.688-.235.2762-.388.5629-.461.86-.068.2918-.102.7114-.102 1.2587v4.3859h-1.407v-8.3731zm18.395-3.4243c1.455 0 2.583.3831 3.386 1.1493.802.7661 1.248 1.6365 1.336 2.6112h-1.516c-.172-.7401-.516-1.3265-1.032-1.7591-.511-.4326-1.23-.6489-2.158-.6489-1.131 0-2.046.3988-2.744 1.1962-.693.7922-1.04 2.0092-1.04 3.651 0 1.3447.313 2.4366.938 3.2757.631.8339 1.569 1.2509 2.815 1.2509 1.146 0 2.019-.4404 2.619-1.3212.318-.4639.555-1.0737.711-1.8295h1.517c-.136 1.2092-.584 2.223-1.345 3.0412-.912.9851-2.142 1.4776-3.69 1.4776-1.334 0-2.455-.4039-3.362-1.2117-1.193-1.0685-1.79-2.7181-1.79-4.9488 0-1.6939.448-3.0829 1.345-4.167.969-1.1779 2.306-1.7669 4.01-1.7669zm7.623 9.5692c0 .4066.149.7271.446.9616.297.2346.648.3519 1.055.3519.495 0 .975-.1147 1.439-.344.781-.3805 1.172-1.0033 1.172-1.8685v-1.1336c-.172.1094-.393.2006-.664.2736-.271.073-.537.1251-.798.1563l-.852.1095c-.511.0678-.894.1746-1.149.3205-.433.245-.649.6359-.649 1.1727zm3.409-2.8457c.323-.0417.539-.1772.648-.4065.063-.1251.094-.305.094-.5395 0-.4795-.172-.8261-.516-1.0398-.338-.2189-.826-.3283-1.462-.3283-.735 0-1.256.198-1.563.5941-.172.2189-.284.5447-.336.9773h-1.314c.026-1.032.36-1.7486 1.001-2.15.646-.4065 1.394-.6098 2.244-.6098.985 0 1.785.1877 2.4.5629.61.3753.914.959.914 1.7513v4.8236c0 .146.029.2633.086.3519.063.0886.191.1329.384.1329.062 0 .132-.0026.211-.0079.078-.0104.161-.0234.25-.039v1.0397c-.219.0626-.386.1017-.501.1173-.114.0157-.271.0235-.469.0235-.484 0-.836-.172-1.055-.516-.115-.1824-.196-.4404-.242-.774-.287.3753-.699.701-1.236.9772-.536.2763-1.128.4144-1.774.4144-.777 0-1.413-.2345-1.908-.7036-.49-.4743-.735-1.0659-.735-1.7747 0-.7766.243-1.3786.727-1.806.485-.4273 1.121-.6905 1.908-.7896l2.244-.2814zm7.958 4.1279c.657 0 1.202-.2736 1.634-.8209.438-.5525.657-1.376.657-2.4705 0-.6671-.096-1.2404-.289-1.7199-.365-.9226-1.032-1.3838-2.002-1.3838-.974 0-1.641.4873-2.001 1.4619-.193.5212-.289 1.1832-.289 1.9858 0 .6463.096 1.1962.289 1.6496.365.8652 1.032 1.2978 2.001 1.2978zm-3.643-7.388h1.368v1.1101c.282-.3804.589-.6749.923-.8834.474-.3127 1.032-.4691 1.673-.4691.948 0 1.754.3649 2.416 1.0945.662.7245.992 1.7617.992 3.1116 0 1.8242-.476 3.1272-1.43 3.909-.605.4951-1.308.7427-2.111.7427-.631 0-1.16-.1381-1.587-.4144-.25-.1563-.529-.4247-.837-.8052v4.2764h-1.407V32.3804zm9.022 0h1.431v8.334h-1.431v-8.334zm0-3.1507h1.431v1.5949h-1.431v-1.5949zm3.847.774h1.422v2.3376h1.337v1.1492h-1.337v5.4648c0 .2919.099.4873.297.5864.11.0573.292.086.548.086h.219c.078-.0053.169-.0131.273-.0235v1.1102a3.129 3.129 0 01-.508.1016c-.172.0208-.36.0313-.563.0313-.656 0-1.102-.1668-1.337-.5004-.234-.3388-.351-.7766-.351-1.3134v-5.543h-1.134v-1.1492h1.134v-2.3376zm5.253 8.4825c0 .4066.149.7271.446.9616.297.2346.649.3519 1.055.3519.495 0 .975-.1147 1.439-.344.782-.3805 1.172-1.0033 1.172-1.8685v-1.1336c-.172.1094-.393.2006-.664.2736-.271.073-.537.1251-.797.1563l-.853.1095c-.51.0678-.894.1746-1.149.3205-.432.245-.649.6359-.649 1.1727zm3.409-2.8457c.323-.0417.539-.1772.649-.4065.062-.1251.094-.305.094-.5395 0-.4795-.172-.8261-.516-1.0398-.339-.2189-.827-.3283-1.462-.3283-.735 0-1.256.198-1.564.5941-.172.2189-.284.5447-.336.9773h-1.314c.026-1.032.36-1.7486 1.001-2.15.646-.4065 1.394-.6098 2.244-.6098.985 0 1.785.1877 2.4.5629.61.3753.915.959.915 1.7513v4.8236c0 .146.028.2633.086.3519.062.0886.19.1329.383.1329.062 0 .133-.0026.211-.0079.078-.0104.161-.0234.25-.039v1.0397c-.219.0626-.386.1017-.5.1173-.115.0157-.271.0235-.469.0235-.485 0-.837-.172-1.056-.516-.114-.1824-.195-.4404-.242-.774-.287.3753-.699.701-1.235.9772-.537.2763-1.129.4144-1.775.4144-.777 0-1.413-.2345-1.908-.7036-.49-.4743-.735-1.0659-.735-1.7747 0-.7766.243-1.3786.728-1.806.484-.4273 1.12-.6905 1.907-.7896l2.244-.2814zm4.464-6.4108h1.407v11.4847h-1.407V29.2297z" fill="#42526E"/></svg>